<?xml version="1.0" standalone="no"?>
<!DOCTYPE svg PUBLIC "-//W3C//DTD SVG 20010904//EN"
 "http://www.w3.org/TR/2001/REC-SVG-20010904/DTD/svg10.dtd">
<svg version="1.0" xmlns="http://www.w3.org/2000/svg"
 width="512.000000pt" height="512.000000pt" viewBox="0 0 512.000000 512.000000"
 preserveAspectRatio="xMidYMid meet">
<metadata>
Created by potrace 1.11, written by Peter Selinger 2001-2013
</metadata>
<g transform="translate(0.000000,512.000000) scale(0.100000,-0.100000)"
fill="#000000" stroke="none">
<path d="M2616 5108 c-37 -13 -74 -46 -92 -80 -12 -24 -49 -148 -59 -198 -2
-12 -6 -29 -9 -38 -3 -9 -8 -29 -11 -44 -13 -70 -17 -85 -25 -118 -5 -19 -11
-47 -14 -63 -3 -15 -7 -35 -10 -45 -3 -9 -7 -28 -10 -42 -30 -167 -154 -545
-186 -565 -13 -8 -62 18 -246 133 -145 90 -292 178 -369 222 -109 62 -315 159
-349 166 -12 2 -43 9 -70 15 -84 20 -192 -6 -237 -57 -21 -24 -52 -84 -43 -84
4 0 2 -6 -4 -13 -35 -42 33 -312 117 -461 12 -20 21 -40 21 -45 0 -7 25 -55
139 -266 15 -27 34 -61 43 -75 53 -87 137 -234 135 -237 -4 -3 -234 -52 -277
-58 -14 -3 -36 -7 -50 -10 -14 -3 -36 -7 -50 -10 -14 -3 -72 -14 -130 -25 -58
-12 -118 -24 -135 -27 -27 -4 -217 -47 -255 -57 -316 -82 -437 -164 -433 -293
0 -13 1 -34 2 -48 3 -65 134 -147 406 -255 44 -17 94 -38 110 -45 17 -7 66
-27 110 -45 212 -84 495 -214 495 -227 0 -26 -141 -214 -334 -448 -267 -323
-346 -461 -332 -586 9 -77 48 -130 124 -169 79 -41 205 -18 494 89 73 27 154
59 181 70 26 11 48 20 50 20 3 0 30 10 192 73 82 32 153 58 156 58 4 0 24 8
45 17 22 9 44 18 49 19 6 1 30 9 54 18 52 19 73 20 70 4 -2 -12 6 -69 18 -123
2 -11 6 -31 9 -45 8 -40 51 -187 84 -290 68 -213 211 -536 293 -662 90 -138
185 -183 282 -132 52 28 76 75 90 179 13 91 17 113 35 185 51 197 185 526 260
640 9 14 29 44 45 67 15 24 39 54 52 68 l25 24 71 -48 c40 -27 124 -89 189
-137 64 -49 129 -98 144 -109 15 -11 33 -26 40 -32 7 -7 15 -13 18 -13 3 0 40
-23 83 -51 173 -113 311 -163 448 -162 105 0 158 17 222 69 84 69 90 146 22
292 -31 67 -178 328 -236 419 -18 29 -33 54 -33 57 0 3 -16 30 -35 60 -19 30
-35 58 -35 62 0 4 -6 15 -14 23 -26 30 -171 310 -163 317 4 4 63 10 192 19 98
6 210 15 250 20 17 2 57 6 90 10 33 4 71 9 85 11 14 3 41 7 60 9 161 18 364
79 464 139 136 82 209 229 171 346 -31 96 -144 160 -405 231 -25 7 -52 13 -60
15 -8 2 -33 7 -55 13 -323 78 -487 134 -577 194 -43 29 -62 57 -39 57 5 0 11
8 14 18 6 18 38 73 48 82 3 3 16 23 29 45 28 46 195 305 207 321 9 12 7 8 122
200 50 83 91 156 91 163 0 6 5 11 10 11 6 0 10 6 10 14 0 7 10 33 23 57 57
107 69 240 29 296 -26 37 -61 67 -92 79 -58 24 -181 -3 -331 -75 -36 -17 -71
-31 -77 -31 -7 0 -12 -4 -12 -10 0 -5 -5 -10 -10 -10 -6 0 -79 -33 -163 -74
-295 -142 -429 -205 -451 -209 -6 -1 -13 -5 -16 -8 -6 -8 -161 -61 -165 -57
-1 2 -5 50 -9 108 -3 58 -9 123 -12 145 -11 88 -36 232 -46 270 -5 22 -11 49
-13 60 -4 27 -41 162 -61 222 -9 26 -17 53 -19 58 -8 37 -81 188 -120 250 -89
138 -238 218 -339 183z"/>
</g>
</svg>
